<?xml version="1.0" encoding="UTF-8" standalone="no"?>
<!DOCTYPE svg PUBLIC "-//W3C//DTD SVG 1.1//EN"
 "http://www.w3.org/Graphics/SVG/1.1/DTD/svg11.dtd">
<!-- Generated by graphviz version 9.0.0 (20230911.1827)
 -->
<!-- Pages: 1 -->
<svg width="415pt" height="201pt"
 viewBox="0.00 0.00 415.00 200.50" xmlns="http://www.w3.org/2000/svg" xmlns:xlink="http://www.w3.org/1999/xlink">
<g id="graph0" class="graph" transform="scale(1 1) rotate(0) translate(4 196.5)">
<polygon fill="#f9fafb" stroke="none" points="-4,4 -4,-196.5 411,-196.5 411,4 -4,4"/>
<!-- 3435ee94b85d3a7f -->
<g id="node1" class="node">
<title>3435ee94b85d3a7f</title>
<polygon fill="#99cc00" stroke="black" points="54,-190 0,-190 0,-154 54,-154 54,-190"/>
<text text-anchor="middle" x="27" y="-166.97" font-family="Helvetica,sans-Serif" font-size="12.00">1.mp4</text>
</g>
<!-- 33672bf384c34723 -->
<g id="node4" class="node">
<title>33672bf384c34723</title>
<g id="a_node4"><a xlink:href="https://ffmpeg-graph.site/filters/concat" xlink:title="concat(n=3, v=1, a=1)" target="_blank">
<polygon fill="#ffcc00" stroke="black" points="258.25,-110 127.5,-110 127.5,-74 258.25,-74 258.25,-110"/>
<text text-anchor="middle" x="192.88" y="-86.97" font-family="Helvetica,sans-Serif" font-size="12.00" fill="#0000ff">concat(n=3, v=1, a=1)</text>
</a>
</g>
</g>
<!-- 3435ee94b85d3a7f&#45;&gt;33672bf384c34723 -->
<g id="edge1" class="edge">
<title>3435ee94b85d3a7f&#45;&gt;33672bf384c34723</title>
<path fill="none" stroke="black" d="M54.31,-176.03C70.78,-177.44 92.1,-177.18 109.5,-170 134.93,-159.51 157.13,-137.25 172.05,-119.19"/>
<polygon fill="black" stroke="black" points="174.76,-121.4 178.23,-111.39 169.28,-117.05 174.76,-121.4"/>
<text text-anchor="middle" x="90.75" y="-179.2" font-family="Times,serif" font-size="14.00">v =&gt; 0</text>
</g>
<!-- 3435ee94b85d3a7f&#45;&gt;33672bf384c34723 -->
<g id="edge2" class="edge">
<title>3435ee94b85d3a7f&#45;&gt;33672bf384c34723</title>
<path fill="none" stroke="black" d="M54.47,-158.33C60.23,-155.39 66.31,-152.32 72,-149.5 95.11,-138.05 120.88,-125.65 142.58,-115.3"/>
<polygon fill="black" stroke="black" points="143.99,-118.5 151.52,-111.05 140.98,-112.18 143.99,-118.5"/>
<text text-anchor="middle" x="90.75" y="-152.2" font-family="Times,serif" font-size="14.00">a =&gt; 1</text>
</g>
<!-- 2ee069ac3881543e -->
<g id="node2" class="node">
<title>2ee069ac3881543e</title>
<polygon fill="#99cc00" stroke="black" points="54,-103 0,-103 0,-67 54,-67 54,-103"/>
<text text-anchor="middle" x="27" y="-79.97" font-family="Helvetica,sans-Serif" font-size="12.00">2.mp4</text>
</g>
<!-- 2ee069ac3881543e&#45;&gt;33672bf384c34723 -->
<g id="edge3" class="edge">
<title>2ee069ac3881543e&#45;&gt;33672bf384c34723</title>
<path fill="none" stroke="black" d="M54.49,-88.43C60.25,-89.06 66.32,-89.63 72,-90 86.09,-90.92 101.14,-91.49 115.64,-91.83"/>
<polygon fill="black" stroke="black" points="115.55,-95.33 125.61,-92.03 115.69,-88.33 115.55,-95.33"/>
<text text-anchor="middle" x="90.75" y="-94.2" font-family="Times,serif" font-size="14.00">v =&gt; 2</text>
</g>
<!-- 2ee069ac3881543e&#45;&gt;33672bf384c34723 -->
<g id="edge4" class="edge">
<title>2ee069ac3881543e&#45;&gt;33672bf384c34723</title>
<path fill="none" stroke="black" d="M54.14,-74.17C59.92,-72.23 66.09,-70.51 72,-69.5 89.72,-66.47 108.87,-67.92 126.55,-71.22"/>
<polygon fill="black" stroke="black" points="125.65,-74.61 136.16,-73.24 127.09,-67.76 125.65,-74.61"/>
<text text-anchor="middle" x="90.75" y="-72.2" font-family="Times,serif" font-size="14.00">a =&gt; 3</text>
</g>
<!-- fef736ba31c1bba -->
<g id="node3" class="node">
<title>fef736ba31c1bba</title>
<polygon fill="#99cc00" stroke="black" points="54,-36 0,-36 0,0 54,0 54,-36"/>
<text text-anchor="middle" x="27" y="-12.97" font-family="Helvetica,sans-Serif" font-size="12.00">3.mp4</text>
</g>
<!-- fef736ba31c1bba&#45;&gt;33672bf384c34723 -->
<g id="edge5" class="edge">
<title>fef736ba31c1bba&#45;&gt;33672bf384c34723</title>
<path fill="none" stroke="black" d="M54.5,-26.02C70.65,-31.21 91.57,-38.48 109.5,-46.5 123.64,-52.82 138.61,-60.71 151.85,-68.13"/>
<polygon fill="black" stroke="black" points="149.86,-71.02 160.28,-72.93 153.33,-64.94 149.86,-71.02"/>
<text text-anchor="middle" x="90.75" y="-49.2" font-family="Times,serif" font-size="14.00">v =&gt; 4</text>
</g>
<!-- fef736ba31c1bba&#45;&gt;33672bf384c34723 -->
<g id="edge6" class="edge">
<title>fef736ba31c1bba&#45;&gt;33672bf384c34723</title>
<path fill="none" stroke="black" d="M54.26,-10.01C70.7,-6.41 92.02,-4.38 109.5,-11.5 135.8,-22.22 158.27,-45.81 173.06,-64.7"/>
<polygon fill="black" stroke="black" points="170.18,-66.69 178.98,-72.58 175.77,-62.48 170.18,-66.69"/>
<text text-anchor="middle" x="90.75" y="-15.2" font-family="Times,serif" font-size="14.00">a =&gt; 5</text>
</g>
<!-- 782595b070df3fbb -->
<g id="node5" class="node">
<title>782595b070df3fbb</title>
<polygon fill="#99ccff" stroke="black" points="407,-110 331.75,-110 331.75,-74 407,-74 407,-110"/>
<text text-anchor="middle" x="369.38" y="-86.97" font-family="Helvetica,sans-Serif" font-size="12.00">output.mp4</text>
</g>
<!-- 33672bf384c34723&#45;&gt;782595b070df3fbb -->
<g id="edge7" class="edge">
<title>33672bf384c34723&#45;&gt;782595b070df3fbb</title>
<path fill="none" stroke="black" d="M258.36,-92C278.7,-92 300.81,-92 319.85,-92"/>
<polygon fill="black" stroke="black" points="319.74,-95.5 329.74,-92 319.74,-88.5 319.74,-95.5"/>
<text text-anchor="middle" x="295" y="-95.2" font-family="Times,serif" font-size="14.00">a =&gt; 0</text>
</g>
<!-- 33672bf384c34723&#45;&gt;782595b070df3fbb -->
<g id="edge8" class="edge">
<title>33672bf384c34723&#45;&gt;782595b070df3fbb</title>
<path fill="none" stroke="black" d="M253.67,-73.5C272.87,-69.78 294.22,-67.96 313.75,-71.5 315.92,-71.89 318.11,-72.37 320.31,-72.91"/>
<polygon fill="black" stroke="black" points="319.23,-76.24 329.81,-75.64 321.17,-69.51 319.23,-76.24"/>
<text text-anchor="middle" x="295" y="-74.2" font-family="Times,serif" font-size="14.00">v =&gt; 1</text>
</g>
</g>
</svg>
